<svg width="32" height="32" viewBox="0 0 32 32" fill="none" xmlns="http://www.w3.org/2000/svg">
<rect width="32" height="32" rx="7" fill="white"/>
<path d="M15.9395 2C10.8614 2 7.19722 5.7014 7.19722 5.7014C7.19722 5.7014 2.82243 9.90778 4.30765 15.3275C5.73317 20.5294 14.3382 30.4187 15.9395 30.4187C18.4356 30.4187 27.0285 18.1277 27.592 15.4131C28.8424 9.38907 24.9357 5.83375 24.9357 5.83375C24.9357 5.83375 21.263 2 15.9395 2ZM15.9558 4.20341C20.2839 4.20341 23.2699 7.32042 23.2699 7.32042C23.2699 7.32042 26.4461 10.2108 25.4295 15.1085C24.9714 17.3154 17.9852 27.3084 15.9558 27.3084C14.654 27.3084 7.65803 19.2682 6.49906 15.039C5.29156 10.6326 8.84827 7.21275 8.84827 7.21275C8.84827 7.21275 11.8273 4.20341 15.9558 4.20341Z" fill="#FF5733"/>
<path d="M13.4447 10.424C12.5493 10.424 11.8284 11.1292 11.8284 12.0047V15.7834C11.8284 16.659 12.5493 17.3638 13.4447 17.3638H18.9882C19.8837 17.3638 20.6045 16.659 20.6045 15.7834V12.0047C20.6045 11.1292 19.8837 10.424 18.9882 10.424H18.483V10.8778C18.483 11.0546 18.3376 11.1971 18.1567 11.1971H18.0848C17.9039 11.1971 17.7582 11.0546 17.7582 10.8778V10.424H16.579V10.8778C16.579 11.0546 16.4333 11.1971 16.2524 11.1971H16.1805C15.9996 11.1971 15.8542 11.0546 15.8542 10.8778V10.424H14.6747V10.8778C14.6747 11.0546 14.5293 11.1971 14.3484 11.1971H14.2765C14.0956 11.1971 13.9499 11.0546 13.9499 10.8778V10.424H13.4447ZM13.2228 12.3512H15.762C15.813 12.3512 15.8542 12.3786 15.8542 12.4128V12.9774C15.8542 13.0116 15.813 13.0392 15.762 13.0392H13.2228C13.1718 13.0392 13.1306 13.0116 13.1306 12.9774V12.4128C13.1306 12.3785 13.1718 12.3512 13.2228 12.3512ZM16.6709 12.3512H19.2101C19.2611 12.3512 19.3023 12.3786 19.3023 12.4128V12.9774C19.3023 13.0116 19.2611 13.0392 19.2101 13.0392H16.6709C16.6199 13.0392 16.579 13.0116 16.579 12.9774V12.4128C16.579 12.3785 16.6199 12.3512 16.6709 12.3512ZM13.2228 13.4141H15.762C15.813 13.4141 15.8542 13.4417 15.8542 13.4759V14.0405C15.8542 14.0748 15.813 14.1021 15.762 14.1021H13.2228C13.1718 14.1021 13.1306 14.0747 13.1306 14.0405V13.4759C13.1306 13.4417 13.1718 13.4141 13.2228 13.4141ZM16.6709 13.4141H19.2101C19.2611 13.4141 19.3023 13.4417 19.3023 13.4759V14.0405C19.3023 14.0748 19.2611 14.1021 19.2101 14.1021H16.6709C16.6199 14.1021 16.579 14.0747 16.579 14.0405V13.4759C16.579 13.4417 16.6199 13.4141 16.6709 13.4141ZM13.2228 14.4769H15.762C15.813 14.4769 15.8539 14.5046 15.8539 14.5388V15.1034C15.8539 15.1376 15.813 15.1652 15.762 15.1652H13.2228C13.1718 15.1652 13.1306 15.1376 13.1306 15.1034V14.5388C13.1306 14.5046 13.1718 14.4769 13.2228 14.4769ZM16.6709 14.4769H19.2101C19.2611 14.4769 19.3023 14.5046 19.3023 14.5388V15.1034C19.3023 15.1376 19.2611 15.1652 19.2101 15.1652H16.6709C16.6199 15.1652 16.579 15.1376 16.579 15.1034V14.5388C16.579 14.5046 16.6199 14.4769 16.6709 14.4769ZM13.2489 15.5747H15.7881C15.8391 15.5747 15.88 15.6023 15.88 15.6365V16.2011C15.88 16.2353 15.8391 16.2629 15.7881 16.2629H13.2489C13.1979 16.2629 13.1567 16.2353 13.1567 16.2011V15.6365C13.1567 15.6023 13.1979 15.5747 13.2489 15.5747ZM16.697 15.5747H19.2362C19.2872 15.5747 19.3284 15.6023 19.3284 15.6365V16.2011C19.3284 16.2353 19.2872 16.2629 19.2362 16.2629H16.697C16.646 16.2629 16.6051 16.2353 16.6051 16.2011V15.6365C16.6051 15.6023 16.646 15.5747 16.697 15.5747Z" fill="#FF5733"/>
</svg>
